<svg xmlns="http://www.w3.org/2000/svg" viewBox="0 0 245.82 141.73"><defs><style>.a{fill:#e11;fill-rule:evenodd;}</style></defs><title>Icon</title><path class="a" d="M175.56,111.37c-22.52,0-40.77-18.84-40.77-42.07S153,27.24,175.56,27.24s40.77,18.84,40.77,42.07S198.08,111.37,175.56,111.37ZM26.84,69.31c0-23.23,18.25-42.07,40.77-42.07s40.77,18.84,40.77,42.07-18.26,42.07-40.77,42.07S26.84,92.54,26.84,69.31ZM27.27,0C11.54,0,0,12.34,0,28.58V110.9c0,16.24,11.54,30.83,27.27,30.83H99.57c2.17,0,4.19-1.83,5.4-3.7L116.47,118a8,8,0,0,1,12.52-.18l11.51,20.34c1.2,1.86,3.22,3.61,5.39,3.61h72.29c15.74,0,27.63-14.6,27.63-30.83V28.58C245.82,12.34,233.93,0,218.19,0H27.27Z"/></svg>